<svg width="38" height="44" viewBox="0 0 38 44" fill="none" xmlns="http://www.w3.org/2000/svg">
<g id="globalnav_links_iphone_image__ko7x4isga4ia_large.svg">
<path id="Vector" fill-rule="evenodd" clip-rule="evenodd" d="M32.713 22.3206H36.193C36.17 21.2016 35.502 20.4636 34.5 20.4636C33.492 20.4636 32.789 21.2016 32.713 22.3206ZM37.172 24.3656C36.879 25.4436 35.895 26.1116 34.512 26.1116C32.76 26.1116 31.664 24.8456 31.664 22.8476C31.664 20.8616 32.777 19.5726 34.512 19.5726C36.217 19.5726 37.254 20.7856 37.254 22.7486V23.1346H32.713V23.1816C32.766 24.4296 33.463 25.2206 34.535 25.2206C35.35 25.2206 35.901 24.9226 36.164 24.3656H37.172ZM24.89 19.6836H25.851V20.6796H25.945C26.261 19.9826 26.877 19.5726 27.843 19.5726C29.261 19.5726 30.052 20.4106 30.052 21.9106V26.0006H29.045V22.1566C29.045 21.0196 28.564 20.4806 27.556 20.4806C26.548 20.4806 25.898 21.1546 25.898 22.2616V26.0006H24.89V19.6836ZM22.391 22.8416C22.391 21.3416 21.717 20.4806 20.522 20.4806C19.326 20.4806 18.652 21.3416 18.652 22.8416C18.652 24.3366 19.326 25.2036 20.522 25.2036C21.717 25.2036 22.391 24.3366 22.391 22.8416ZM17.609 22.8416C17.609 20.8086 18.723 19.5726 20.522 19.5726C22.32 19.5726 23.434 20.8086 23.434 22.8416C23.434 24.8696 22.32 26.1116 20.522 26.1116C18.723 26.1116 17.609 24.8696 17.609 22.8416ZM10.973 17.1756H11.981V20.6796H12.074C12.391 19.9826 13.053 19.5726 14.02 19.5726C15.356 19.5726 16.199 20.4276 16.199 21.9106V26.0006H15.192V22.1566C15.192 21.0376 14.688 20.4806 13.733 20.4806C12.602 20.4806 11.981 21.1956 11.981 22.2616V26.0006H10.973V17.1756ZM4.95796 22.0456H6.82096C8.02296 22.0456 8.71996 21.4006 8.71996 20.2816C8.71996 19.1216 8.04596 18.4826 6.82096 18.4826H4.95796V22.0456ZM7.09696 17.5456C8.69596 17.5456 9.80396 18.6706 9.80396 20.2816C9.80396 21.8636 8.67296 22.9826 7.08496 22.9826H4.95796V26.0006H3.90296V17.5456H7.09696ZM0.982959 25.9996H1.99096V19.6836H0.982959V25.9996ZM0.782959 17.7616C0.782959 17.3756 1.09996 17.0586 1.48596 17.0586C1.87296 17.0586 2.18996 17.3756 2.18996 17.7616C2.18996 18.1486 1.87296 18.4656 1.48596 18.4656C1.09996 18.4656 0.782959 18.1486 0.782959 17.7616Z" fill="white"/>
</g>
</svg>
