<svg width="24" height="44" viewBox="0 0 24 44" fill="none" xmlns="http://www.w3.org/2000/svg">
<g clip-path="url(#clip0_2_3393)">
<path d="M8.65581 25.999V19.542H8.58551L5.91951 25.999H5.02881L2.36281 19.542H2.29251V25.999H1.30811V17.5439H2.53271L5.42721 24.5986H5.52101L8.41551 17.5439H9.64011V25.999H8.65581ZM11.1724 24.2294C11.1724 23.0985 12.0044 22.4482 13.4751 22.3603L15.2974 22.249V21.6748C15.2974 20.8955 14.8111 20.4678 13.8677 20.4678C13.1118 20.4678 12.5845 20.7549 12.4439 21.253H11.4244C11.5592 20.2393 12.5553 19.5714 13.9029 19.5714C15.4439 19.5714 16.3052 20.3624 16.3052 21.6749V25.9991H15.3443V25.0673H15.2505C14.8403 25.7411 14.1489 26.1103 13.3052 26.1103C12.0806 26.1103 11.1724 25.3837 11.1724 24.2294ZM15.2974 23.6435V23.0634L13.5982 23.1747C12.6373 23.2392 12.2154 23.5731 12.2154 24.2059C12.2154 24.8504 12.7603 25.2254 13.4927 25.2254C14.5298 25.2255 15.2974 24.5458 15.2974 23.6435ZM22.2554 21.6162C22.0913 20.9892 21.5347 20.4795 20.6265 20.4795C19.4898 20.4795 18.7749 21.3877 18.7749 22.8174C18.7749 24.2764 19.5015 25.2022 20.6265 25.2022C21.4761 25.2022 22.0679 24.8096 22.2554 24.0948H23.2749C23.0933 25.255 22.1499 26.1104 20.6323 26.1104C18.8628 26.1104 17.7319 24.8272 17.7319 22.8174C17.7319 20.8486 18.8569 19.5713 20.6264 19.5713C22.1616 19.5713 23.0991 20.4912 23.2748 21.6162H22.2554Z" fill="white"/>
</g>
<defs>
<clipPath id="clip0_2_3393">
<rect width="23" height="44" fill="white" transform="translate(0.5)"/>
</clipPath>
</defs>
</svg>
