<svg width="81" height="44" viewBox="0 0 81 44" fill="none" xmlns="http://www.w3.org/2000/svg">
<g id="globalnav_links_onlyonapple_image__c4t8k97tougm_large.svg" clip-path="url(#clip0_2_3419)">
<g id="Group">
<path id="Vector" d="M9.87426 21.7699C9.87426 24.4699 8.41426 26.1999 5.99426 26.1999C3.56426 26.1999 2.11426 24.4799 2.11426 21.7699C2.11426 19.0499 3.60426 17.3499 5.99426 17.3499C8.39426 17.3399 9.87426 19.0599 9.87426 21.7699ZM3.20426 21.7699C3.20426 23.8699 4.24426 25.2299 5.99426 25.2299C7.72426 25.2299 8.78426 23.8699 8.78426 21.7699C8.78426 19.6499 7.71426 18.3199 5.99426 18.3199C4.27426 18.3199 3.20426 19.6499 3.20426 21.7699ZM11.5743 19.6799H12.5343V20.6799H12.6243C12.9443 19.9799 13.5543 19.5699 14.5243 19.5699C15.9443 19.5699 16.7343 20.4099 16.7343 21.9099V25.9999H15.7243V22.1599C15.7243 21.0199 15.2443 20.4799 14.2343 20.4799C13.2243 20.4799 12.5743 21.1499 12.5743 22.2599V25.9999H11.5643V19.6799H11.5743ZM18.6343 17.1699H19.6443V25.9999H18.6343V17.1699ZM21.6843 28.2499V27.3899C21.8043 27.4099 21.9643 27.4199 22.1043 27.4199C22.6843 27.4199 23.0043 27.1399 23.2643 26.3799L23.3843 25.9999L21.0443 19.6799H22.1343L23.8643 24.8799H23.9543L25.6843 19.6799H26.7543L24.2843 26.3799C23.7443 27.8399 23.2443 28.2799 22.1243 28.2799C22.0043 28.2799 21.8243 28.2699 21.6843 28.2499ZM31.1843 22.8399C31.1843 20.8099 32.2943 19.5699 34.0943 19.5699C35.8943 19.5699 37.0043 20.8099 37.0043 22.8399C37.0043 24.8699 35.8943 26.1099 34.0943 26.1099C32.2943 26.1099 31.1843 24.8699 31.1843 22.8399ZM35.9643 22.8399C35.9643 21.3399 35.2943 20.4799 34.0943 20.4799C32.8943 20.4799 32.2243 21.3399 32.2243 22.8399C32.2243 24.3299 32.8943 25.1999 34.0943 25.1999C35.2943 25.1999 35.9643 24.3299 35.9643 22.8399ZM38.5943 19.6799H39.5543V20.6799H39.6443C39.9643 19.9799 40.5743 19.5699 41.5443 19.5699C42.9643 19.5699 43.7543 20.4099 43.7543 21.9099V25.9999H42.7443V22.1599C42.7443 21.0199 42.2643 20.4799 41.2543 20.4799C40.2443 20.4799 39.5943 21.1499 39.5943 22.2599V25.9999H38.5843L38.5943 19.6799ZM53.7543 23.5799H50.3943L49.5443 25.9999H48.4343L51.5543 17.5399H52.5943L55.7143 25.9999H54.6043L53.7543 23.5799ZM50.7043 22.6799H53.4443L52.1243 18.9099H52.0343L50.7043 22.6799ZM62.7943 22.8399C62.7943 24.8099 61.7443 26.1099 60.1443 26.1099C59.2443 26.1099 58.5143 25.7199 58.1743 25.0499H58.0843V28.1099H57.0743V19.6799H58.0343V20.7299H58.1243C58.5243 19.9999 59.2843 19.5599 60.1443 19.5599C61.7543 19.5699 62.7943 20.8499 62.7943 22.8399ZM61.7543 22.8399C61.7543 21.3599 61.0643 20.4799 59.9043 20.4799C58.7643 20.4799 58.0443 21.3899 58.0443 22.8399C58.0443 24.2899 58.7643 25.1999 59.9043 25.1999C61.0643 25.1999 61.7543 24.3199 61.7543 22.8399ZM70.1043 22.8399C70.1043 24.8099 69.0543 26.1099 67.4543 26.1099C66.5543 26.1099 65.8243 25.7199 65.4843 25.0499H65.3843V28.1099H64.3743V19.6799H65.3343V20.7299H65.4243C65.8243 19.9999 66.5843 19.5599 67.4443 19.5599C69.0643 19.5699 70.1043 20.8499 70.1043 22.8399ZM69.0643 22.8399C69.0643 21.3599 68.3743 20.4799 67.2143 20.4799C66.0743 20.4799 65.3543 21.3899 65.3543 22.8399C65.3543 24.2899 66.0743 25.1999 67.2143 25.1999C68.3743 25.1999 69.0643 24.3199 69.0643 22.8399ZM71.7543 17.1699H72.7643V25.9999H71.7543V17.1699ZM79.9043 24.3599C79.6143 25.4399 78.6243 26.1099 77.2443 26.1099C75.4943 26.1099 74.3943 24.8399 74.3943 22.8499C74.3943 20.8599 75.5043 19.5699 77.2443 19.5699C78.9543 19.5699 79.9843 20.7799 79.9843 22.7499V23.1399H75.4443V23.1899C75.4943 24.4399 76.1943 25.2299 77.2643 25.2299C78.0743 25.2299 78.6343 24.9299 78.8943 24.3699L79.9043 24.3599ZM75.4443 22.3199H78.9243C78.9043 21.1999 78.2343 20.4599 77.2343 20.4599C76.2243 20.4599 75.5243 21.1999 75.4443 22.3199Z" fill="white"/>
</g>
</g>
<defs>
<clipPath id="clip0_2_3419">
<rect width="80" height="44" fill="white" transform="translate(0.984375)"/>
</clipPath>
</defs>
</svg>
