<svg width="31" height="44" viewBox="0 0 31 44" fill="none" xmlns="http://www.w3.org/2000/svg">
<g id="globalnav_links_store_image__c7jy08initqq_large.svg" clip-path="url(#clip0_2_3389)">
<path id="Vector" fill-rule="evenodd" clip-rule="evenodd" d="M27.3179 20.4627C28.3199 20.4627 28.9879 21.2007 29.0109 22.3197H25.5309C25.6069 21.2007 26.3099 20.4627 27.3179 20.4627ZM30.0719 23.1347V22.7477C30.0719 20.7847 29.0349 19.5717 27.3299 19.5717C25.5949 19.5717 24.4819 20.8607 24.4819 22.8477C24.4819 24.8457 25.5779 26.1107 27.3299 26.1107C28.7129 26.1107 29.6969 25.4427 29.9899 24.3647H28.9819C28.7179 24.9217 28.1679 25.2207 27.3529 25.2207C26.2809 25.2207 25.5839 24.4297 25.5309 23.1817V23.1347H30.0719ZM20.5249 19.6837H21.4849V20.6207H21.5789C21.7669 20.0057 22.4929 19.5717 23.3309 19.5717C23.4949 19.5717 23.7059 19.5837 23.8349 19.6017V20.6087C23.7529 20.5857 23.3899 20.5507 23.1909 20.5507C22.2299 20.5507 21.5319 21.6487 21.5319 22.0857V25.9997H20.5249V19.6837ZM16.2549 25.2027C15.0599 25.2027 14.3859 24.3357 14.3859 22.8417C14.3859 21.3417 15.0599 20.4807 16.2549 20.4807C17.4509 20.4807 18.1249 21.3417 18.1249 22.8417C18.1249 24.3357 17.4509 25.2027 16.2549 25.2027ZM16.2549 19.5717C14.4569 19.5717 13.3429 20.8087 13.3429 22.8417C13.3429 24.8687 14.4569 26.1107 16.2549 26.1107C18.0539 26.1107 19.1679 24.8687 19.1679 22.8417C19.1679 20.8087 18.0539 19.5717 16.2549 19.5717ZM10.7769 18.0967V19.7317H12.1839V20.5747H10.7769V24.1497C10.7769 24.8937 11.0589 25.2097 11.7149 25.2097C11.8969 25.2097 11.9959 25.2037 12.1839 25.1867V26.0357C11.9849 26.0707 11.7909 26.0947 11.5919 26.0947C10.2909 26.0947 9.76991 25.6137 9.76991 24.4067V20.5747H8.74991V19.7317H9.76991V18.0967H10.7769ZM2.67391 23.7907C2.80291 24.6757 3.64691 25.2377 4.84791 25.2377C5.98491 25.2377 6.82291 24.6227 6.82291 23.7847C6.82291 23.0647 6.29591 22.6077 5.12991 22.3147L4.04591 22.0327C2.51591 21.6467 1.85391 20.9547 1.85391 19.7537C1.85391 18.3177 3.05491 17.3457 4.84191 17.3457C6.47691 17.3457 7.69591 18.3177 7.78391 19.6837H6.72291C6.57691 18.8167 5.86191 18.3007 4.80691 18.3007C3.68191 18.3007 2.93791 18.8627 2.93791 19.7187C2.93791 20.3807 3.40091 20.7617 4.56691 21.0607L5.45191 21.2947C7.20391 21.7337 7.90691 22.4137 7.90691 23.6557C7.90691 25.2087 6.68191 26.1987 4.74891 26.1987C2.95591 26.1987 1.71891 25.2497 1.60791 23.7907H2.67391Z" fill="white"/>
</g>
<defs>
<clipPath id="clip0_2_3389">
<rect width="30" height="44" fill="white" transform="translate(0.75)"/>
</clipPath>
</defs>
</svg>
