<svg width="45" height="44" viewBox="0 0 45 44" fill="none" xmlns="http://www.w3.org/2000/svg">
<g id="globalnav_links_support_image__bw9kctll7u3m_large.svg" clip-path="url(#clip0_2_3430)">
<path id="Vector" fill-rule="evenodd" clip-rule="evenodd" d="M42.5892 18.0341V19.6691H43.9952V20.5131H42.5892V24.0871C42.5892 24.8311 42.8702 25.1471 43.5262 25.1471C43.7082 25.1471 43.8082 25.1411 43.9952 25.1241V25.9731C43.7962 26.0091 43.6032 26.0321 43.4032 26.0321C42.1032 26.0321 41.5812 25.5521 41.5812 24.3451V20.5131H40.5622V19.6691H41.5812V18.0341H42.5892ZM36.4582 19.6691H37.4192V20.6061H37.5122C37.7002 19.9911 38.4262 19.5571 39.2642 19.5571C39.4282 19.5571 39.6392 19.5691 39.7682 19.5871V20.5951C39.6862 20.5711 39.3232 20.5361 39.1242 20.5361C38.1632 20.5361 37.4652 21.1801 37.4652 22.0711V25.9851H36.4582V19.6691ZM33.9952 22.8271C33.9952 21.3271 33.3212 20.4661 32.1262 20.4661C30.9312 20.4661 30.2572 21.3271 30.2572 22.8271C30.2572 24.3211 30.9312 25.1881 32.1262 25.1881C33.3212 25.1881 33.9952 24.3211 33.9952 22.8271ZM29.2142 22.8271C29.2142 20.7941 30.3272 19.5571 32.1262 19.5571C33.9252 19.5571 35.0382 20.7941 35.0382 22.8271C35.0382 24.8541 33.9252 26.0971 32.1262 26.0971C30.3272 26.0971 29.2142 24.8541 29.2142 22.8271ZM27.1062 22.8271C27.1062 21.3501 26.4142 20.4661 25.2602 20.4661C24.1172 20.4661 23.3972 21.3741 23.3972 22.8271C23.3972 24.2741 24.1172 25.1881 25.2542 25.1881C26.4142 25.1881 27.1062 24.3041 27.1062 22.8271ZM28.1492 22.8271C28.1492 24.8021 27.1002 26.0971 25.4942 26.0971C24.5922 26.0971 23.8652 25.7041 23.5202 25.0361H23.4262V28.0951H22.4182V19.6691H23.3792V20.7231H23.4732C23.8772 19.9971 24.6332 19.5571 25.4942 19.5571C27.1062 19.5571 28.1492 20.8411 28.1492 22.8271ZM20.1012 22.8271C20.1012 21.3501 19.4102 20.4661 18.2562 20.4661C17.1132 20.4661 16.3922 21.3741 16.3922 22.8271C16.3922 24.2741 17.1132 25.1881 18.2502 25.1881C19.4102 25.1881 20.1012 24.3041 20.1012 22.8271ZM21.1442 22.8271C21.1442 24.8021 20.0952 26.0971 18.4902 26.0971C17.5882 26.0971 16.8612 25.7041 16.5152 25.0361H16.4222V28.0951H15.4142V19.6691H16.3752V20.7231H16.4682C16.8732 19.9971 17.6292 19.5571 18.4902 19.5571C20.1012 19.5571 21.1442 20.8411 21.1442 22.8271ZM13.4992 25.9851H12.5382V24.9951H12.4442C12.1282 25.6981 11.4542 26.0971 10.4872 26.0971C9.06919 26.0971 8.33119 25.2531 8.33119 23.7591V19.6691H9.33919V23.5131C9.33919 24.6491 9.76119 25.1771 10.7692 25.1771C11.8822 25.1771 12.4912 24.5141 12.4912 23.4071V19.6691H13.4992V25.9851ZM1.80919 23.7761C1.93819 24.6611 2.78119 25.2231 3.98319 25.2231C5.11919 25.2231 5.95719 24.6081 5.95719 23.7701C5.95719 23.0501 5.43019 22.5931 4.26419 22.3001L3.18019 22.0181C1.65119 21.6321 0.988187 20.9401 0.988187 19.7391C0.988187 18.3041 2.19019 17.3311 3.97719 17.3311C5.61119 17.3311 6.83019 18.3041 6.91819 19.6691H5.85819C5.71119 18.8021 4.99619 18.2861 3.94219 18.2861C2.81719 18.2861 2.07219 18.8481 2.07219 19.7041C2.07219 20.3661 2.53519 20.7471 3.70119 21.0461L4.58619 21.2801C6.33819 21.7201 7.04119 22.3991 7.04119 23.6411C7.04119 25.1941 5.81719 26.1841 3.88319 26.1841C2.09019 26.1841 0.854188 25.2351 0.742188 23.7761H1.80919Z" fill="white"/>
</g>
<defs>
<clipPath id="clip0_2_3430">
<rect width="44" height="44" fill="white" transform="translate(0.46875)"/>
</clipPath>
</defs>
</svg>
