<svg width="25" height="44" viewBox="0 0 25 44" fill="none" xmlns="http://www.w3.org/2000/svg">
<g id="globalnav_links_ipad_image__fw9qyj9lloi2_large.svg">
<path id="Vector" fill-rule="evenodd" clip-rule="evenodd" d="M15.2074 23.7006C15.2074 24.6026 14.4394 25.2826 13.4024 25.2826C12.6704 25.2826 12.1254 24.9076 12.1254 24.2626C12.1254 23.6306 12.5474 23.2966 13.5084 23.2316L15.2074 23.1206V23.7006ZM13.8124 19.6286C12.4654 19.6286 11.4694 20.2966 11.3344 21.3096H12.3534C12.4944 20.8116 13.0214 20.5246 13.7774 20.5246C14.7214 20.5246 15.2074 20.9526 15.2074 21.7316V22.3056L13.3854 22.4176C11.9144 22.5056 11.0824 23.1556 11.0824 24.2866C11.0824 25.4406 11.9904 26.1676 13.2154 26.1676C14.0594 26.1676 14.7504 25.7986 15.1604 25.1246H15.2544V26.0556H16.2154V21.7316C16.2154 20.4196 15.3534 19.6286 13.8124 19.6286ZM20.5814 25.2036C19.4264 25.2036 18.7354 24.3186 18.7354 22.8426C18.7354 21.3716 19.4324 20.4806 20.5814 20.4806C21.7234 20.4806 22.4384 21.3946 22.4384 22.8426C22.4384 24.3016 21.7294 25.2036 20.5814 25.2036ZM22.4154 17.1766V20.6796H22.3274C21.9694 19.9886 21.2254 19.5726 20.3464 19.5726C18.7414 19.5726 17.6924 20.8616 17.6924 22.8426C17.6924 24.8286 18.7294 26.1116 20.3464 26.1116C21.2194 26.1116 21.9694 25.6956 22.3684 24.9926H22.4614V26.0006H23.4224V17.1766H22.4154ZM7.02142 22.0456H5.15842V18.4826H7.02142C8.24642 18.4826 8.92042 19.1216 8.92042 20.2816C8.92042 21.4006 8.22342 22.0456 7.02142 22.0456ZM7.29742 17.5456H4.10342V26.0006H5.15842V22.9826H7.28542C8.87342 22.9826 10.0044 21.8636 10.0044 20.2816C10.0044 18.6706 8.89642 17.5456 7.29742 17.5456ZM1.23342 25.9996H2.24142V19.6836H1.23342V25.9996ZM1.03442 17.7626C1.03442 17.3756 1.35042 17.0586 1.73742 17.0586C2.12442 17.0586 2.44042 17.3756 2.44042 17.7626C2.44042 18.1486 2.12442 18.4656 1.73742 18.4656C1.35042 18.4656 1.03442 18.1486 1.03442 17.7626Z" fill="white"/>
</g>
</svg>
