<svg width="68" height="44" viewBox="0 0 68 44" fill="none" xmlns="http://www.w3.org/2000/svg">
<g id="globalnav_links_accessories_image__edj0wqmfwxyu_large.svg" clip-path="url(#clip0_2_3425)">
<path id="Vector" d="M6.38695 23.5713H3.02365L2.17405 25.9912H1.06665L4.18385 17.5361H5.22685L8.34405 25.9912H7.23655L6.38695 23.5713ZM3.33425 22.6748H6.07645L4.75225 18.9014H4.65845L3.33425 22.6748ZM13.4328 21.6084C13.2688 20.9814 12.7122 20.4717 11.804 20.4717C10.6673 20.4717 9.95235 21.3799 9.95235 22.8096C9.95235 24.2686 10.679 25.1944 11.804 25.1944C12.6536 25.1944 13.2453 24.8018 13.4328 24.087H14.4524C14.2708 25.2472 13.3274 26.1026 11.8098 26.1026C10.0403 26.1026 8.90935 24.8194 8.90935 22.8096C8.90935 20.8408 10.0344 19.5635 11.8039 19.5635C13.3391 19.5635 14.2766 20.4834 14.4523 21.6084H13.4328ZM20.0275 21.6084C19.8634 20.9814 19.3069 20.4717 18.3987 20.4717C17.262 20.4717 16.5471 21.3799 16.5471 22.8096C16.5471 24.2686 17.2737 25.1944 18.3987 25.1944C19.2483 25.1944 19.84 24.8018 20.0275 24.087H21.0471C20.8654 25.2472 19.9221 26.1026 18.4044 26.1026C16.6349 26.1026 15.5041 24.8194 15.5041 22.8096C15.5041 20.8408 16.6291 19.5635 18.3986 19.5635C19.9338 19.5635 20.8713 20.4834 21.0469 21.6084H20.0275ZM27.6072 24.3564C27.3142 25.4345 26.3299 26.1025 24.947 26.1025C23.195 26.1025 22.0993 24.8369 22.0993 22.8388C22.0993 20.8525 23.2126 19.5634 24.947 19.5634C26.6521 19.5634 27.6891 20.7763 27.6891 22.7392V23.1259H23.1481V23.1728C23.2008 24.4208 23.8981 25.2119 24.9704 25.2119C25.785 25.2119 26.3356 24.9131 26.5993 24.3564H27.6072ZM23.1481 22.3115H26.6287C26.6053 21.1924 25.9373 20.4541 24.9352 20.4541C23.9275 20.4541 23.2243 21.1924 23.1481 22.3115ZM31.3601 19.5635C32.6843 19.5635 33.6043 20.2197 33.7391 21.2569H32.743C32.6082 20.753 32.1159 20.419 31.3542 20.419C30.6042 20.419 30.0184 20.7999 30.0184 21.3624C30.0184 21.796 30.3699 22.0655 31.114 22.2472L32.0868 22.4816C33.2762 22.7687 33.8504 23.2843 33.8504 24.1925C33.8504 25.3234 32.7547 26.1027 31.3193 26.1027C29.913 26.1027 28.9463 25.4289 28.8349 24.38H29.872C30.0419 24.9132 30.5458 25.253 31.3544 25.253C32.204 25.253 32.8134 24.8487 32.8134 24.2686C32.8134 23.835 32.4853 23.542 31.8113 23.378L30.7274 23.1143C29.5438 22.8272 29.0047 22.3174 29.0047 21.4034C29.0047 20.3545 30.0183 19.5635 31.3601 19.5635ZM37.404 19.5635C38.7282 19.5635 39.6482 20.2197 39.783 21.2569H38.7868C38.6521 20.753 38.1599 20.419 37.3982 20.419C36.6482 20.419 36.0623 20.7999 36.0623 21.3624C36.0623 21.796 36.4139 22.0655 37.158 22.2472L38.1306 22.4816C39.3201 22.7687 39.8944 23.2843 39.8944 24.1925C39.8944 25.3234 38.7987 26.1027 37.3632 26.1027C35.957 26.1027 34.9902 25.4289 34.8787 24.38H35.9159C36.0858 24.9132 36.5896 25.253 37.3983 25.253C38.2479 25.253 38.8573 24.8487 38.8573 24.2686C38.8573 23.835 38.5292 23.542 37.8553 23.378L36.7713 23.1143C35.5877 22.8272 35.0485 22.3174 35.0485 21.4034C35.0485 20.3545 36.0622 19.5635 37.404 19.5635ZM41.0397 22.833C41.0397 20.7998 42.153 19.5635 43.9519 19.5635C45.7507 19.5635 46.8639 20.7998 46.8639 22.833C46.8639 24.8603 45.7507 26.1025 43.9519 26.1025C42.153 26.1025 41.0397 24.8603 41.0397 22.833ZM45.821 22.833C45.821 21.333 45.1473 20.4717 43.952 20.4717C42.7566 20.4717 42.0829 21.333 42.0829 22.833C42.0829 24.3271 42.7566 25.1943 43.952 25.1943C45.1473 25.1943 45.821 24.3271 45.821 22.833ZM48.3265 19.6748H49.2873V20.6123H49.3811C49.5686 19.9971 50.2953 19.5635 51.1332 19.5635C51.2973 19.5635 51.5082 19.5752 51.6371 19.5928V20.6006C51.555 20.5772 51.1917 20.542 50.9925 20.542C50.0317 20.542 49.3344 21.1865 49.3344 22.0772V25.9913H48.3265V19.6748H48.3265ZM52.6008 17.7529C52.6008 17.3662 52.9173 17.0498 53.304 17.0498C53.6907 17.0498 54.007 17.3662 54.007 17.7529C54.007 18.1396 53.6907 18.456 53.304 18.456C52.9173 18.456 52.6008 18.1396 52.6008 17.7529ZM52.8 19.6748H53.8078V25.9912H52.8V19.6748ZM60.8011 24.3564C60.5081 25.4345 59.5238 26.1025 58.1409 26.1025C56.3889 26.1025 55.2932 24.8369 55.2932 22.8388C55.2932 20.8525 56.4064 19.5634 58.1409 19.5634C59.846 19.5634 60.883 20.7763 60.883 22.7392V23.1259H56.342V23.1728C56.3947 24.4208 57.092 25.2119 58.1643 25.2119C58.9788 25.2119 59.5296 24.9131 59.7933 24.3564H60.8011ZM56.342 22.3115H59.8226C59.7992 21.1924 59.1311 20.4541 58.1292 20.4541C57.1213 20.4541 56.4182 21.1924 56.342 22.3115ZM64.554 19.5635C65.8782 19.5635 66.798 20.2197 66.9329 21.2569H65.9368C65.8019 20.753 65.3098 20.419 64.548 20.419C63.798 20.419 63.2122 20.7999 63.2122 21.3624C63.2122 21.796 63.5638 22.0655 64.3078 22.2472L65.2806 22.4816C66.4701 22.7687 67.0443 23.2843 67.0443 24.1925C67.0443 25.3234 65.9485 26.1027 64.5131 26.1027C63.1068 26.1027 62.14 25.4289 62.0286 24.38H63.0658C63.2356 24.9132 63.7395 25.253 64.5481 25.253C65.3978 25.253 66.0072 24.8487 66.0072 24.2686C66.0072 23.835 65.6791 23.542 65.0052 23.378L63.9212 23.1143C62.7375 22.8272 62.1985 22.3174 62.1985 21.4034C62.1985 20.3545 63.2122 19.5635 64.554 19.5635Z" fill="white"/>
</g>
<defs>
<clipPath id="clip0_2_3425">
<rect width="67" height="44" fill="white" transform="translate(0.726562)"/>
</clipPath>
</defs>
</svg>
