<svg width="66" height="44" viewBox="0 0 66 44" fill="none" xmlns="http://www.w3.org/2000/svg">
<g id="globalnav_links_tvhome_image__zb2ewyxbi6ae_large.svg" clip-path="url(#clip0_2_3414)">
<path id="Vector" d="M4.60985 26.0001V18.4942H1.88525V17.545H8.38915V18.4942H5.66455V26.0001H4.60985ZM12.3413 26.0001L9.22405 17.545H10.3315L12.8159 24.6348H12.9097L15.3941 17.545H16.5015L13.3843 26.0001H12.3413ZM26.3223 25.1563C25.6016 25.7891 24.6114 26.1583 23.586 26.1583C21.9044 26.1583 20.7266 25.1622 20.7266 23.7442C20.7266 22.7422 21.2715 21.9805 22.4024 21.3829C22.4786 21.3477 22.6368 21.2657 22.7305 21.2188C21.9512 20.3985 21.67 19.8536 21.67 19.2383C21.67 18.1543 22.5899 17.3457 23.8262 17.3457C25.0742 17.3457 25.9824 18.1426 25.9824 19.25C25.9824 20.1172 25.4609 20.75 24.1543 21.4355L26.2695 23.7089C26.5332 23.1816 26.6679 22.4901 26.6679 21.4355V21.289H27.6523V21.4413C27.6523 22.7538 27.4179 23.7089 26.955 24.4237L28.4258 26.0001H27.1016L26.3223 25.1563ZM21.7813 23.6739C21.7813 24.6231 22.5489 25.2677 23.6797 25.2677C24.4473 25.2677 25.2383 24.963 25.7012 24.4767L23.3106 21.8634C23.2461 21.8868 23.0938 21.963 23.0118 22.004C22.1973 22.4259 21.7813 23.0118 21.7813 23.6739ZM24.9922 19.2853C24.9922 18.6291 24.5176 18.1837 23.832 18.1837C23.1582 18.1837 22.6777 18.6407 22.6777 19.297C22.6777 19.7658 22.9179 20.1759 23.5859 20.838C24.6172 20.3106 24.9922 19.8888 24.9922 19.2853ZM38.5098 26.0001V22.1505H33.8692V26.0001H32.8145V17.545H33.8692V21.2012H38.5098V17.545H39.5645V26.0001H38.5098ZM41.1553 22.8419C41.1553 20.8087 42.2686 19.5724 44.0674 19.5724C45.8662 19.5724 46.9795 20.8087 46.9795 22.8419C46.9795 24.8692 45.8662 26.1114 44.0674 26.1114C42.2686 26.1114 41.1553 24.8692 41.1553 22.8419ZM45.9365 22.8419C45.9365 21.3419 45.2627 20.4806 44.0674 20.4806C42.8721 20.4806 42.1983 21.3419 42.1983 22.8419C42.1983 24.336 42.8721 25.2032 44.0674 25.2032C45.2627 25.2032 45.9365 24.336 45.9365 22.8419ZM48.4419 19.6837H49.4028V20.6798H49.4966C49.7837 19.9767 50.4165 19.5724 51.2603 19.5724C52.1158 19.5724 52.7134 20.0236 53.0064 20.6798H53.1002C53.44 20.0118 54.1607 19.5724 55.0338 19.5724C56.3229 19.5724 57.0436 20.3107 57.0436 21.6349V26.0001H56.0358V21.8692C56.0358 20.9376 55.5962 20.4805 54.7057 20.4805C53.8268 20.4805 53.2409 21.1367 53.2409 21.9395V26.0001H52.2331V21.711C52.2331 20.961 51.7116 20.4805 50.9147 20.4805C50.0885 20.4805 49.4499 21.1953 49.4499 22.086V26.0001H48.4421V19.6837H48.4419ZM63.9546 24.3653C63.6616 25.4434 62.6773 26.1114 61.2944 26.1114C59.5424 26.1114 58.4467 24.8458 58.4467 22.8477C58.4467 20.8614 59.56 19.5723 61.2944 19.5723C62.9995 19.5723 64.0366 20.7852 64.0366 22.7481V23.1348H59.4956V23.1817C59.5483 24.4297 60.2456 25.2208 61.3179 25.2208C62.1324 25.2208 62.6831 24.922 62.9468 24.3653H63.9546ZM59.4956 22.3204H62.9761C62.9527 21.2013 62.2847 20.463 61.2827 20.463C60.2749 20.463 59.5718 21.2013 59.4956 22.3204Z" fill="white"/>
</g>
<defs>
<clipPath id="clip0_2_3414">
<rect width="65" height="44" fill="white" transform="translate(0.234375)"/>
</clipPath>
</defs>
</svg>
