<svg width="44" height="44" viewBox="0 0 44 44" fill="none" xmlns="http://www.w3.org/2000/svg">
<g id="globalnav_links_airpods_image__f969s84ivmaa_large.svg" clip-path="url(#clip0_2_3410)">
<path id="Vector" fill-rule="evenodd" clip-rule="evenodd" d="M12.2074 19.6836H13.1684V20.6206H13.2624C13.4494 20.0056 14.1764 19.5726 15.0144 19.5726C15.1784 19.5726 15.3895 19.5836 15.5184 19.6016V20.6096C15.4365 20.5856 15.0724 20.5506 14.8734 20.5506C13.9124 20.5506 13.2154 21.1956 13.2154 22.0856V25.9996H12.2074V19.6836ZM40.3424 19.5726C41.6665 19.5726 42.5865 20.2286 42.7215 21.2656H41.7254C41.5905 20.7616 41.0984 20.4276 40.3364 20.4276C39.5864 20.4276 39.0005 20.8086 39.0005 21.3706C39.0005 21.8046 39.3525 22.0746 40.0965 22.2556L41.0695 22.4906C42.2584 22.7776 42.8325 23.2926 42.8325 24.2016C42.8325 25.3316 41.7374 26.1116 40.3014 26.1116C38.8955 26.1116 37.9284 25.4376 37.8174 24.3886H38.8545C39.0244 24.9216 39.5285 25.2616 40.3364 25.2616C41.1864 25.2616 41.7954 24.8576 41.7954 24.2776C41.7954 23.8436 41.4674 23.5506 40.7934 23.3866L39.7094 23.1226C38.5265 22.8356 37.9874 22.3266 37.9874 21.4126C37.9874 20.3636 39.0005 19.5726 40.3424 19.5726ZM33.6774 25.2036C32.5224 25.2036 31.8314 24.3186 31.8314 22.8416C31.8314 21.3706 32.5284 20.4806 33.6774 20.4806C34.8194 20.4806 35.5345 21.3946 35.5345 22.8416C35.5345 24.3006 34.8254 25.2036 33.6774 25.2036ZM35.5114 17.1756V20.6796H35.4235C35.0654 19.9886 34.3214 19.5726 33.4424 19.5726C31.8374 19.5726 30.7885 20.8616 30.7885 22.8416C30.7885 24.8286 31.8254 26.1116 33.4424 26.1116C34.3154 26.1116 35.0655 25.6956 35.4645 24.9926H35.5584V25.9996H36.5195V17.1756H35.5114ZM26.5104 25.2036C25.3154 25.2036 24.6414 24.3356 24.6414 22.8416C24.6414 21.3416 25.3154 20.4806 26.5104 20.4806C27.7064 20.4806 28.3794 21.3416 28.3794 22.8416C28.3794 24.3356 27.7064 25.2036 26.5104 25.2036ZM26.5104 19.5726C24.7114 19.5726 23.5984 20.8086 23.5984 22.8416C23.5984 24.8696 24.7114 26.1116 26.5104 26.1116C28.3094 26.1116 29.4224 24.8696 29.4224 22.8416C29.4224 20.8086 28.3094 19.5726 26.5104 19.5726ZM9.43945 25.9996H10.4474V19.6836H9.43945V25.9996ZM9.24045 17.7616C9.24045 17.3746 9.55745 17.0586 9.94345 17.0586C10.3304 17.0586 10.6464 17.3746 10.6464 17.7616C10.6464 18.1486 10.3304 18.4646 9.94345 18.4646C9.55745 18.4646 9.24045 18.1486 9.24045 17.7616ZM3.10345 22.6836L4.42745 18.9106H4.52045L5.84545 22.6836H3.10345ZM4.99545 17.5446H3.95245L0.835449 25.9996H1.94245L2.79245 23.5796H6.15545L7.00545 25.9996H8.11245L4.99545 17.5446ZM19.8634 22.0446H17.9994V18.4826H19.8634C21.0874 18.4826 21.7614 19.1216 21.7614 20.2816C21.7614 21.4006 21.0644 22.0446 19.8634 22.0446ZM20.1384 17.5446H16.9454V25.9996H17.9994V22.9826H20.1264C21.7144 22.9826 22.8454 21.8636 22.8454 20.2816C22.8454 18.6696 21.7384 17.5446 20.1384 17.5446Z" fill="white"/>
</g>
<defs>
<clipPath id="clip0_2_3410">
<rect width="43" height="44" fill="white" transform="translate(0.492188)"/>
</clipPath>
</defs>
</svg>
