<svg width="36" height="44" viewBox="0 0 36 44" fill="none" xmlns="http://www.w3.org/2000/svg">
<g id="globalnav_links_watch_image__gkoblojrlsqe_large.svg">
<path id="Vector" fill-rule="evenodd" clip-rule="evenodd" d="M29.7319 17.1758H30.7399V20.6798H30.8339C31.1499 19.9828 31.8119 19.5718 32.7789 19.5718C34.1149 19.5718 34.9589 20.4278 34.9589 21.9098V25.9998H33.9509V22.1558C33.9509 21.0368 33.4469 20.4808 32.4919 20.4808C31.3609 20.4808 30.7399 21.1958 30.7399 22.2618V25.9998H29.7319V17.1758ZM27.3119 21.6168C27.1479 20.9898 26.5909 20.4808 25.6829 20.4808C24.5459 20.4808 23.8309 21.3888 23.8309 22.8188C23.8309 24.2778 24.5579 25.2028 25.6829 25.2028C26.5319 25.2028 27.1239 24.8108 27.3119 24.0958H28.3309C28.1489 25.2558 27.2059 26.1118 25.6889 26.1118C23.9189 26.1118 22.7879 24.8278 22.7879 22.8188C22.7879 20.8498 23.9129 19.5718 25.6829 19.5718C27.2179 19.5718 28.1549 20.4918 28.3309 21.6168H27.3119ZM20.7789 18.0488V19.6838H22.1859V20.5278H20.7789V24.1018C20.7789 24.8458 21.0609 25.1618 21.7169 25.1618C21.8989 25.1618 21.9979 25.1558 22.1859 25.1388V25.9888C21.9859 26.0238 21.7929 26.0468 21.5939 26.0468C20.2929 26.0468 19.7719 25.5668 19.7719 24.3598V20.5278H18.7519V19.6838H19.7719V18.0488H20.7789ZM16.5789 23.6448V23.0648L14.8799 23.1758C13.9189 23.2398 13.4969 23.5738 13.4969 24.2068C13.4969 24.8518 14.0419 25.2268 14.7739 25.2268C15.8119 25.2268 16.5789 24.5468 16.5789 23.6448ZM12.4539 24.2308C12.4539 23.0998 13.2859 22.4488 14.7569 22.3618L16.5789 22.2498V21.6758C16.5789 20.8968 16.0929 20.4688 15.1489 20.4688C14.3939 20.4688 13.8659 20.7558 13.7259 21.2538H12.7059C12.8409 20.2398 13.8369 19.5718 15.1849 19.5718C16.7259 19.5718 17.5869 20.3638 17.5869 21.6758V25.9998H16.6259V25.0688H16.5319C16.1219 25.7418 15.4309 26.1118 14.5869 26.1118C13.3619 26.1118 12.4539 25.3848 12.4539 24.2308ZM4.76995 25.9998H3.77395L1.47095 17.5448H2.57195L4.25395 24.4178H4.32395L6.21695 17.5448H7.28295L9.17595 24.4178H9.24595L10.9279 17.5448H12.0289L9.72695 25.9998H8.73095L6.78495 19.3258H6.71495L4.76995 25.9998Z" fill="white"/>
</g>
</svg>
